<svg width="41" height="40" viewBox="0 0 41 40" fill="none" xmlns="http://www.w3.org/2000/svg">
<path d="M11.8504 0H28.6504C35.0504 0 40.2504 5.2 40.2504 11.6V28.4C40.2504 31.4765 39.0283 34.427 36.8528 36.6024C34.6774 38.7779 31.7269 40 28.6504 40H11.8504C5.4504 40 0.250397 34.8 0.250397 28.4V11.6C0.250397 8.52349 1.47254 5.57298 3.64796 3.39756C5.82338 1.22214 8.77389 0 11.8504 0ZM11.4504 4C9.54084 4 7.70949 4.75857 6.35923 6.10883C5.00897 7.45909 4.2504 9.29044 4.2504 11.2V28.8C4.2504 32.78 7.4704 36 11.4504 36H29.0504C30.96 36 32.7913 35.2414 34.1416 33.8912C35.4918 32.5409 36.2504 30.7096 36.2504 28.8V11.2C36.2504 7.22 33.0304 4 29.0504 4H11.4504ZM30.7504 7C31.4134 7 32.0493 7.26339 32.5182 7.73223C32.987 8.20107 33.2504 8.83696 33.2504 9.5C33.2504 10.163 32.987 10.7989 32.5182 11.2678C32.0493 11.7366 31.4134 12 30.7504 12C30.0874 12 29.4515 11.7366 28.9826 11.2678C28.5138 10.7989 28.2504 10.163 28.2504 9.5C28.2504 8.83696 28.5138 8.20107 28.9826 7.73223C29.4515 7.26339 30.0874 7 30.7504 7ZM20.2504 10C22.9026 10 25.4461 11.0536 27.3215 12.9289C29.1968 14.8043 30.2504 17.3478 30.2504 20C30.2504 22.6522 29.1968 25.1957 27.3215 27.0711C25.4461 28.9464 22.9026 30 20.2504 30C17.5982 30 15.0547 28.9464 13.1793 27.0711C11.304 25.1957 10.2504 22.6522 10.2504 20C10.2504 17.3478 11.304 14.8043 13.1793 12.9289C15.0547 11.0536 17.5982 10 20.2504 10ZM20.2504 14C18.6591 14 17.133 14.6321 16.0078 15.7574C14.8825 16.8826 14.2504 18.4087 14.2504 20C14.2504 21.5913 14.8825 23.1174 16.0078 24.2426C17.133 25.3679 18.6591 26 20.2504 26C21.8417 26 23.3678 25.3679 24.493 24.2426C25.6183 23.1174 26.2504 21.5913 26.2504 20C26.2504 18.4087 25.6183 16.8826 24.493 15.7574C23.3678 14.6321 21.8417 14 20.2504 14Z" fill="#DFE0E2"/>
</svg>
