<svg width="199" height="23" viewBox="0 0 199 23" fill="none" xmlns="http://www.w3.org/2000/svg">
<path d="M11.5625 21.0625C14.0986 21.0625 16.5309 20.055 18.3242 18.2617C20.1175 16.4684 21.125 14.0361 21.125 11.5C21.125 8.96387 20.1175 6.53161 18.3242 4.73829C16.5309 2.94498 14.0986 1.9375 11.5625 1.9375C9.02637 1.9375 6.59411 2.94498 4.80079 4.73829C3.00748 6.53161 2 8.96387 2 11.5C2 14.0361 3.00748 16.4684 4.80079 18.2617C6.59411 20.055 9.02637 21.0625 11.5625 21.0625Z" fill="#DFE0E2" stroke="#DFE0E2" stroke-width="2"/>
<path d="M54.6875 21.0625C57.2236 21.0625 59.6559 20.055 61.4492 18.2617C63.2425 16.4684 64.25 14.0361 64.25 11.5C64.25 8.96387 63.2425 6.53161 61.4492 4.73829C59.6559 2.94498 57.2236 1.9375 54.6875 1.9375C52.1514 1.9375 49.7191 2.94498 47.9258 4.73829C46.1325 6.53161 45.125 8.96387 45.125 11.5C45.125 14.0361 46.1325 16.4684 47.9258 18.2617C49.7191 20.055 52.1514 21.0625 54.6875 21.0625Z" fill="#DFE0E2" stroke="#DFE0E2" stroke-width="2"/>
<path d="M97.8125 21.0625C100.349 21.0625 102.781 20.055 104.574 18.2617C106.368 16.4684 107.375 14.0361 107.375 11.5C107.375 8.96387 106.368 6.53161 104.574 4.73829C102.781 2.94498 100.349 1.9375 97.8125 1.9375C95.2764 1.9375 92.8441 2.94498 91.0508 4.73829C89.2575 6.53161 88.25 8.96387 88.25 11.5C88.25 14.0361 89.2575 16.4684 91.0508 18.2617C92.8441 20.055 95.2764 21.0625 97.8125 21.0625Z" fill="#DFE0E2" stroke="#DFE0E2" stroke-width="2"/>
<path d="M131.375 11.5C131.375 8.71523 132.481 6.04451 134.45 4.07538C136.42 2.10625 139.09 1 141.875 1C144.66 1 147.33 2.10625 149.3 4.07538C151.269 6.04451 152.375 8.71523 152.375 11.5C152.375 14.2848 151.269 16.9555 149.3 18.9246C147.33 20.8938 144.66 22 141.875 22C139.09 22 136.42 20.8938 134.45 18.9246C132.481 16.9555 131.375 14.2848 131.375 11.5ZM141.875 4.9375C140.135 4.9375 138.465 5.6289 137.235 6.85961C136.004 8.09032 135.312 9.75952 135.312 11.5C135.312 13.2405 136.004 14.9097 137.235 16.1404C138.465 17.3711 140.135 18.0625 141.875 18.0625C143.615 18.0625 145.285 17.3711 146.515 16.1404C147.746 14.9097 148.438 13.2405 148.438 11.5C148.438 9.75952 147.746 8.09032 146.515 6.85961C145.285 5.6289 143.615 4.9375 141.875 4.9375Z" fill="#DFE0E2"/>
<path d="M176.375 11.5C176.375 8.71523 177.481 6.04451 179.45 4.07538C181.42 2.10625 184.09 1 186.875 1C189.66 1 192.33 2.10625 194.3 4.07538C196.269 6.04451 197.375 8.71523 197.375 11.5C197.375 14.2848 196.269 16.9555 194.3 18.9246C192.33 20.8938 189.66 22 186.875 22C184.09 22 181.42 20.8938 179.45 18.9246C177.481 16.9555 176.375 14.2848 176.375 11.5ZM186.875 4.9375C185.135 4.9375 183.465 5.6289 182.235 6.85961C181.004 8.09032 180.312 9.75952 180.312 11.5C180.312 13.2405 181.004 14.9097 182.235 16.1404C183.465 17.3711 185.135 18.0625 186.875 18.0625C188.615 18.0625 190.285 17.3711 191.515 16.1404C192.746 14.9097 193.438 13.2405 193.438 11.5C193.438 9.75952 192.746 8.09032 191.515 6.85961C190.285 5.6289 188.615 4.9375 186.875 4.9375Z" fill="#DFE0E2"/>
</svg>
