<svg width="200" height="23" viewBox="0 0 200 23" fill="none" xmlns="http://www.w3.org/2000/svg">
<path d="M10.5625 21.0625C13.0986 21.0625 15.5309 20.055 17.3242 18.2617C19.1175 16.4684 20.125 14.0361 20.125 11.5C20.125 8.96387 19.1175 6.53161 17.3242 4.73829C15.5309 2.94498 13.0986 1.9375 10.5625 1.9375C8.02637 1.9375 5.59411 2.94498 3.80079 4.73829C2.00748 6.53161 1 8.96387 1 11.5C1 14.0361 2.00748 16.4684 3.80079 18.2617C5.59411 20.055 8.02637 21.0625 10.5625 21.0625Z" fill="#DFE0E2" stroke="#DFE0E2" stroke-width="2"/>
<path d="M53.6875 21.0625C56.2236 21.0625 58.6559 20.055 60.4492 18.2617C62.2425 16.4684 63.25 14.0361 63.25 11.5C63.25 8.96387 62.2425 6.53161 60.4492 4.73829C58.6559 2.94498 56.2236 1.9375 53.6875 1.9375C51.1514 1.9375 48.7191 2.94498 46.9258 4.73829C45.1325 6.53161 44.125 8.96387 44.125 11.5C44.125 14.0361 45.1325 16.4684 46.9258 18.2617C48.7191 20.055 51.1514 21.0625 53.6875 21.0625Z" fill="#DFE0E2" stroke="#DFE0E2" stroke-width="2"/>
<path d="M87.25 11.5C87.25 8.71523 88.3562 6.04451 90.3254 4.07538C92.2945 2.10625 94.9652 1 97.75 1C100.535 1 103.205 2.10625 105.175 4.07538C107.144 6.04451 108.25 8.71523 108.25 11.5C108.25 14.2848 107.144 16.9555 105.175 18.9246C103.205 20.8938 100.535 22 97.75 22C94.9652 22 92.2945 20.8938 90.3254 18.9246C88.3562 16.9555 87.25 14.2848 87.25 11.5ZM97.75 4.9375C96.0095 4.9375 94.3403 5.6289 93.1096 6.85961C91.8789 8.09032 91.1875 9.75952 91.1875 11.5C91.1875 13.2405 91.8789 14.9097 93.1096 16.1404C94.3403 17.3711 96.0095 18.0625 97.75 18.0625C99.4905 18.0625 101.16 17.3711 102.39 16.1404C103.621 14.9097 104.312 13.2405 104.312 11.5C104.312 9.75952 103.621 8.09032 102.39 6.85961C101.16 5.6289 99.4905 4.9375 97.75 4.9375Z" fill="#DFE0E2"/>
<path d="M132.25 11.5C132.25 8.71523 133.356 6.04451 135.325 4.07538C137.295 2.10625 139.965 1 142.75 1C145.535 1 148.205 2.10625 150.175 4.07538C152.144 6.04451 153.25 8.71523 153.25 11.5C153.25 14.2848 152.144 16.9555 150.175 18.9246C148.205 20.8938 145.535 22 142.75 22C139.965 22 137.295 20.8938 135.325 18.9246C133.356 16.9555 132.25 14.2848 132.25 11.5ZM142.75 4.9375C141.01 4.9375 139.34 5.6289 138.11 6.85961C136.879 8.09032 136.188 9.75952 136.188 11.5C136.188 13.2405 136.879 14.9097 138.11 16.1404C139.34 17.3711 141.01 18.0625 142.75 18.0625C144.49 18.0625 146.16 17.3711 147.39 16.1404C148.621 14.9097 149.312 13.2405 149.312 11.5C149.312 9.75952 148.621 8.09032 147.39 6.85961C146.16 5.6289 144.49 4.9375 142.75 4.9375Z" fill="#DFE0E2"/>
<path d="M177.25 11.5C177.25 8.71523 178.356 6.04451 180.325 4.07538C182.295 2.10625 184.965 1 187.75 1C190.535 1 193.205 2.10625 195.175 4.07538C197.144 6.04451 198.25 8.71523 198.25 11.5C198.25 14.2848 197.144 16.9555 195.175 18.9246C193.205 20.8938 190.535 22 187.75 22C184.965 22 182.295 20.8938 180.325 18.9246C178.356 16.9555 177.25 14.2848 177.25 11.5ZM187.75 4.9375C186.01 4.9375 184.34 5.6289 183.11 6.85961C181.879 8.09032 181.188 9.75952 181.188 11.5C181.188 13.2405 181.879 14.9097 183.11 16.1404C184.34 17.3711 186.01 18.0625 187.75 18.0625C189.49 18.0625 191.16 17.3711 192.39 16.1404C193.621 14.9097 194.312 13.2405 194.312 11.5C194.312 9.75952 193.621 8.09032 192.39 6.85961C191.16 5.6289 189.49 4.9375 187.75 4.9375Z" fill="#DFE0E2"/>
</svg>
