<svg width="194" height="22" viewBox="0 0 194 22" fill="none" xmlns="http://www.w3.org/2000/svg">
<path d="M10.5625 20.125C13.0986 20.125 15.5309 19.1175 17.3242 17.3242C19.1175 15.5309 20.125 13.0986 20.125 10.5625C20.125 8.02637 19.1175 5.59411 17.3242 3.80079C15.5309 2.00748 13.0986 1 10.5625 1C8.02637 1 5.59411 2.00748 3.80079 3.80079C2.00748 5.59411 1 8.02637 1 10.5625C1 13.0986 2.00748 15.5309 3.80079 17.3242C5.59411 19.1175 8.02637 20.125 10.5625 20.125Z" fill="#DFE0E2" stroke="#DFE0E2" stroke-width="2"/>
<path d="M53.6875 20.125C56.2236 20.125 58.6559 19.1175 60.4492 17.3242C62.2425 15.5309 63.25 13.0986 63.25 10.5625C63.25 8.02637 62.2425 5.59411 60.4492 3.80079C58.6559 2.00748 56.2236 1 53.6875 1C51.1514 1 48.7191 2.00748 46.9258 3.80079C45.1325 5.59411 44.125 8.02637 44.125 10.5625C44.125 13.0986 45.1325 15.5309 46.9258 17.3242C48.7191 19.1175 51.1514 20.125 53.6875 20.125Z" fill="#DFE0E2" stroke="#DFE0E2" stroke-width="2"/>
<path d="M96.8125 20.125C99.3486 20.125 101.781 19.1175 103.574 17.3242C105.368 15.5309 106.375 13.0986 106.375 10.5625C106.375 8.02637 105.368 5.59411 103.574 3.80079C101.781 2.00748 99.3486 1 96.8125 1C94.2764 1 91.8441 2.00748 90.0508 3.80079C88.2575 5.59411 87.25 8.02637 87.25 10.5625C87.25 13.0986 88.2575 15.5309 90.0508 17.3242C91.8441 19.1175 94.2764 20.125 96.8125 20.125Z" fill="#DFE0E2" stroke="#DFE0E2" stroke-width="2"/>
<path d="M139.938 20.125C142.474 20.125 144.906 19.1175 146.699 17.3242C148.493 15.5309 149.5 13.0986 149.5 10.5625C149.5 8.02637 148.493 5.59411 146.699 3.80079C144.906 2.00748 142.474 1 139.938 1C137.401 1 134.969 2.00748 133.176 3.80079C131.382 5.59411 130.375 8.02637 130.375 10.5625C130.375 13.0986 131.382 15.5309 133.176 17.3242C134.969 19.1175 137.401 20.125 139.938 20.125Z" fill="#DFE0E2" stroke="#DFE0E2" stroke-width="2"/>
<path d="M183.062 20.125C185.599 20.125 188.031 19.1175 189.824 17.3242C191.618 15.5309 192.625 13.0986 192.625 10.5625C192.625 8.02637 191.618 5.59411 189.824 3.80079C188.031 2.00748 185.599 1 183.062 1C180.526 1 178.094 2.00748 176.301 3.80079C174.507 5.59411 173.5 8.02637 173.5 10.5625C173.5 13.0986 174.507 15.5309 176.301 17.3242C178.094 19.1175 180.526 20.125 183.062 20.125Z" fill="#DFE0E2" stroke="#DFE0E2" stroke-width="2"/>
</svg>
