<svg width="34" height="36" viewBox="0 0 34 36" fill="none" xmlns="http://www.w3.org/2000/svg">
<path d="M7.55165 7.82811C7.11415 6.71161 7.13165 5.43586 7.3259 4.26861C8.66283 4.67034 9.91864 5.30417 11.0359 6.14111C11.5259 6.51561 12.1682 6.63636 12.7667 6.45611C14.3022 5.99555 15.8973 5.76439 17.5004 5.77011C19.1821 5.77011 20.7799 6.01511 22.2306 6.45436C22.8292 6.63636 23.4714 6.51386 23.9597 6.13936C25.0764 5.3026 26.3316 4.66878 27.6679 4.26686C27.8622 5.43411 27.8779 6.70986 27.4439 7.82461C27.1814 8.49661 27.3126 9.27011 27.8079 9.81961C29.0749 11.2249 29.7504 12.8401 29.7504 14.5201C29.7504 18.2196 26.3029 21.8474 20.7659 22.9516C19.3799 23.2281 18.8392 24.9729 19.8997 25.9721C20.5804 26.6126 21.0004 27.5156 21.0004 28.5201V33.7701C21.0004 34.2342 21.1848 34.6794 21.513 35.0075C21.8412 35.3357 22.2863 35.5201 22.7504 35.5201C23.2145 35.5201 23.6596 35.3357 23.9878 35.0075C24.316 34.6794 24.5004 34.2342 24.5004 33.7701V28.5201C24.5004 27.5226 24.2904 26.5741 23.9159 25.7149C29.1957 23.8826 33.2504 19.7579 33.2504 14.5201C33.2504 12.1629 32.4034 9.99636 30.9981 8.18161C31.3657 6.74661 31.3324 5.30111 31.1924 4.19161C31.0681 3.19761 30.8949 1.89561 30.1949 1.11861C29.1537 -0.0346407 27.4299 0.644359 26.2049 1.06261C24.8902 1.50574 23.6398 2.12065 22.4862 2.89136C20.8571 2.47499 19.1819 2.26626 17.5004 2.27011C15.7609 2.27011 14.0827 2.48886 12.5112 2.89311C11.3575 2.1224 10.1071 1.50749 8.7924 1.06436C7.5674 0.644359 5.8419 -0.0346407 4.80065 1.11861C4.08665 1.90961 3.9379 3.10836 3.81015 4.12686L3.8014 4.19336C3.6614 5.30461 3.6299 6.75186 3.9974 8.18861C2.5974 10.0016 1.7504 12.1646 1.7504 14.5201C1.7504 19.7561 5.80515 23.8826 11.0849 25.7149C10.7034 26.5888 10.5045 27.5315 10.5004 28.4851L10.2064 28.5446C8.95165 28.7179 8.1484 28.5621 7.6024 28.3311C6.2724 27.7676 5.5864 26.3484 4.7499 25.2634C4.2284 24.5896 3.4689 23.7479 2.3034 23.3594C2.08531 23.2867 1.85505 23.2578 1.62577 23.2742C1.39648 23.2905 1.17267 23.3519 0.967103 23.4548C0.551945 23.6625 0.236316 24.0267 0.0896514 24.4671C-0.0570133 24.9076 -0.0226997 25.3883 0.185044 25.8034C0.392787 26.2186 0.756943 26.5342 1.1974 26.6809C2.1739 27.0064 2.8494 28.6794 3.4689 29.4214C4.12165 30.2054 4.98965 31.0244 6.2339 31.5529C7.4274 32.0604 8.82915 32.2406 10.5004 32.0359V33.7701C10.5004 34.2342 10.6848 34.6794 11.013 35.0075C11.3412 35.3357 11.7863 35.5201 12.2504 35.5201C12.7145 35.5201 13.1596 35.3357 13.4878 35.0075C13.816 34.6794 14.0004 34.2342 14.0004 33.7701V28.5201C14.0004 27.5156 14.4204 26.6126 15.1012 25.9721C16.1634 24.9711 15.6209 23.2281 14.2349 22.9516C8.69615 21.8474 5.2504 18.2196 5.2504 14.5201C5.2504 12.8436 5.92415 11.2284 7.1894 9.82311C7.68465 9.27361 7.81415 8.50011 7.55165 7.82811Z" fill="#DFE0E2"/>
</svg>
